Coordinates
version=1
nRows=16
nColumns=40
inDegrees=yes

Units are S.I. units (second, meters, Newtons, ...)
If the header above contains a line with 'inDegrees', this indicates whether rotational values are in degrees (yes) or radians (no).

endheader
time	pelvis_tilt	pelvis_list	pelvis_rotation	pelvis_tx	pelvis_ty	pelvis_tz	hip_flexion_r	hip_adduction_r	hip_rotation_r	knee_angle_r	knee_angle_r_beta	ankle_angle_r	subtalar_angle_r	mtp_angle_r	hip_flexion_l	hip_adduction_l	hip_rotation_l	knee_angle_l	knee_angle_l_beta	ankle_angle_l	subtalar_angle_l	mtp_angle_l	lumbar_extension	lumbar_bending	lumbar_rotation	arm_flex_r	arm_add_r	arm_rot_r	elbow_flex_r	pro_sup_r	wrist_flex_r	wrist_dev_r	arm_flex_l	arm_add_l	arm_rot_l	elbow_flex_l	pro_sup_l	wrist_flex_l	wrist_dev_l
     15.15000000	    -88.92635850	     83.41398960	    -88.30405496	      0.83165258	      0.27477853	      0.57532183	     45.00000012	     -9.99999999	      0.00000000	     60.00014062	      1.04720001	     -4.99999985	      0.00000000	      0.00000000	     45.00000012	     -9.99999999	      0.00000000	     60.00014062	      1.04720001	     -4.99999985	      0.00000000	      0.00000000	    -23.88979824	     -2.45802423	      2.86776397	     -3.55147385	    -32.02308949	     30.04806867	     95.46543478	     86.18637806	      0.00000000	      0.00000000	      3.72726391	    -36.08789404	     40.80450131	     93.68247388	     89.22811951	      0.00000000	      0.00000000
     15.15500000	    -88.93721078	     83.33953509	    -88.34394206	      0.83169732	      0.27490363	      0.57539658	     45.00000012	     -9.99999999	      0.00000000	     60.00014062	      1.04720001	     -4.99999985	      0.00000000	      0.00000000	     45.00000012	     -9.99999999	      0.00000000	     60.00014062	      1.04720001	     -4.99999985	      0.00000000	      0.00000000	    -23.96971557	     -2.46800464	      2.91655757	     -3.57169672	    -31.91088210	     29.89504025	     95.45175843	     86.25628299	      0.00000000	      0.00000000	      3.80269667	    -36.10895776	     40.87944346	     93.66951146	     89.21858317	      0.00000000	      0.00000000
     15.16000000	    -88.92664369	     83.27632478	    -88.36334498	      0.83175255	      0.27499495	      0.57545131	     45.00000012	     -9.99999999	      0.00000000	     60.00014062	      1.04720001	     -4.99999985	      0.00000000	      0.00000000	     45.00000012	     -9.99999999	      0.00000000	     60.00014062	      1.04720001	     -4.99999985	      0.00000000	      0.00000000	    -24.04488559	     -2.47269699	      2.89239153	     -3.51640798	    -31.80398350	     29.84585985	     95.37637462	     86.28249337	      0.00000000	      0.00000000	      3.81488696	    -36.14849283	     40.87320714	     93.68704409	     89.21948173	      0.00000000	      0.00000000
     15.16500000	    -88.94771903	     83.23369920	    -88.37166068	      0.83181923	      0.27493654	      0.57541222	     45.00000012	     -9.99999999	      0.00000000	     60.00014062	      1.04720001	     -4.99999985	      0.00000000	      0.00000000	     45.00000012	     -9.99999999	      0.00000000	     60.00014062	      1.04720001	     -4.99999985	      0.00000000	      0.00000000	    -24.08114324	     -2.45703463	      2.92190973	     -3.53946350	    -31.75949185	     29.70864007	     95.39433364	     86.29986430	      0.00000000	      0.00000000	      3.88006448	    -36.13491903	     40.92536185	     93.65749899	     89.22112125	      0.00000000	      0.00000000
     15.17000000	    -88.96739914	     83.46963934	    -88.39447783	      0.83214356	      0.27498910	      0.57484262	     45.00000012	     -9.99999999	      0.00000000	     60.00014062	      1.04720001	     -4.99999985	      0.00000000	      0.00000000	     45.00000012	     -9.99999999	      0.00000000	     60.00014062	      1.04720001	     -4.99999985	      0.00000000	      0.00000000	    -23.83501541	     -2.46364650	      2.95787297	     -3.57743413	    -31.68176371	     29.60769912	     95.43098248	     85.63259910	      0.00000000	      0.00000000	      3.92901798	    -36.16381520	     40.98257483	     93.63741002	     89.21772177	      0.00000000	      0.00000000
     15.17500000	    -88.97087720	     83.33226154	    -88.39199117	      0.83201743	      0.27490766	      0.57498195	     45.00000012	     -9.99999999	      0.00000000	     60.00014062	      1.04720001	     -4.99999985	      0.00000000	      0.00000000	     45.00000012	     -9.99999999	      0.00000000	     60.00014062	      1.04720001	     -4.99999985	      0.00000000	      0.00000000	    -23.96036686	     -2.43857692	      2.97577030	     -3.64487481	    -31.64220263	     29.40811781	     95.39025853	     85.93958211	      0.00000000	      0.00000000	      4.03084697	    -36.17398219	     41.13203316	     93.62645655	     89.21729358	      0.00000000	      0.00000000
     15.18000000	    -88.95064708	     83.24620000	    -88.42569041	      0.83209832	      0.27486054	      0.57510192	     45.00000012	     -9.99999999	      0.00000000	     60.00014062	      1.04720001	     -4.99999985	      0.00000000	      0.00000000	     45.00000012	     -9.99999999	      0.00000000	     60.00014062	      1.04720001	     -4.99999985	      0.00000000	      0.00000000	    -24.05597458	     -2.43043790	      2.95879252	     -3.60817915	    -31.60915066	     29.35829286	     95.34053177	     86.29631199	      0.00000000	      0.00000000	      4.07678584	    -36.18654230	     41.15161912	     93.62290049	     89.21846071	      0.00000000	      0.00000000
     15.18500000	    -88.96448353	     82.98777352	    -88.41408842	      0.83183541	      0.27501067	      0.57551180	     45.00000012	     -9.99999999	      0.00000000	     60.00014062	      1.04720001	     -4.99999985	      0.00000000	      0.00000000	     45.00000012	     -9.99999999	      0.00000000	     60.00014062	      1.04720001	     -4.99999985	      0.00000000	      0.00000000	    -24.30657165	     -2.43309519	      2.92804923	     -3.62168090	    -31.50747012	     29.23351287	     95.26976709	     86.33896613	      0.00000000	      0.00000000	      4.08679195	    -36.27690350	     41.18948875	     93.71224294	     89.22116133	      0.00000000	      0.00000000
     15.19000000	    -88.98093959	     83.08483778	    -88.43307028	      0.83207552	      0.27488180	      0.57526929	     45.00000012	     -9.99999999	      0.00000000	     60.00014062	      1.04720001	     -4.99999985	      0.00000000	      0.00000000	     45.00000012	     -9.99999999	      0.00000000	     60.00014062	      1.04720001	     -4.99999985	      0.00000000	      0.00000000	    -24.20928836	     -2.41087727	      2.96822404	     -3.66906430	    -31.53096545	     29.15137775	     95.32908172	     86.38374191	      0.00000000	      0.00000000	      4.12410574	    -36.22072311	     41.17013076	     93.62559925	     89.21803593	      0.00000000	      0.00000000
     15.19500000	    -88.99111923	     83.07193841	    -88.44792440	      0.83212377	      0.27488620	      0.57522536	     45.00000012	     -9.99999999	      0.00000000	     60.00014062	      1.04720001	     -4.99999985	      0.00000000	      0.00000000	     45.00000012	     -9.99999999	      0.00000000	     60.00014062	      1.04720001	     -4.99999985	      0.00000000	      0.00000000	    -24.21277181	     -2.40361509	      3.00237625	     -3.74713043	    -31.51631842	     29.03932845	     95.35267758	     86.37422941	      0.00000000	      0.00000000	      4.20769907	    -36.22987613	     41.25476589	     93.60009030	     89.21901305	      0.00000000	      0.00000000
     15.20000000	    -88.99257865	     83.09986171	    -88.45395621	      0.83218425	      0.27487090	      0.57513187	     45.00000012	     -9.99999999	      0.00000000	     60.00014062	      1.04720001	     -4.99999985	      0.00000000	      0.00000000	     45.00000012	     -9.99999999	      0.00000000	     60.00014062	      1.04720001	     -4.99999985	      0.00000000	      0.00000000	    -24.17176645	     -2.39339774	      3.02227850	     -3.83478396	    -31.49486022	     28.92377850	     95.36032047	     86.33519390	      0.00000000	      0.00000000	      4.28649854	    -36.24365891	     41.34503078	     93.57275885	     89.22139696	      0.00000000	      0.00000000
     15.20500000	    -89.00487700	     83.09467170	    -88.46049360	      0.83226173	      0.27488265	      0.57511557	     45.00000012	     -9.99999999	      0.00000000	     60.00014062	      1.04720001	     -4.99999985	      0.00000000	      0.00000000	     45.00000012	     -9.99999999	      0.00000000	     60.00014062	      1.04720001	     -4.99999985	      0.00000000	      0.00000000	    -24.17046715	     -2.38691439	      3.01195392	     -3.83628977	    -31.49303779	     28.93329302	     95.34375771	     86.42771162	      0.00000000	      0.00000000	      4.29289753	    -36.25751606	     41.33492060	     93.56913452	     89.21693364	      0.00000000	      0.00000000
     15.21000000	    -89.01098327	     83.03826473	    -88.47764402	      0.83224996	      0.27493592	      0.57516689	     45.00000012	     -9.99999999	      0.00000000	     60.00014062	      1.04720001	     -4.99999985	      0.00000000	      0.00000000	     45.00000012	     -9.99999999	      0.00000000	     60.00014062	      1.04720001	     -4.99999985	      0.00000000	      0.00000000	    -24.21841586	     -2.38562714	      3.02863736	     -3.88927616	    -31.48451922	     28.89575582	     95.35227097	     86.44060004	      0.00000000	      0.00000000	      4.33355779	    -36.27441059	     41.36759710	     93.56604507	     89.22035961	      0.00000000	      0.00000000
     15.21500000	    -89.03346718	     83.09313506	    -88.42968387	      0.83236561	      0.27489359	      0.57502983	     45.00000012	     -9.99999999	      0.00000000	     60.00014062	      1.04720001	     -4.99999985	      0.00000000	      0.00000000	     45.00000012	     -9.99999999	      0.00000000	     60.00014062	      1.04720001	     -4.99999985	      0.00000000	      0.00000000	    -24.15141039	     -2.36495192	      3.01229738	     -3.94659978	    -31.48413538	     28.87113073	     95.34713302	     86.29947370	      0.00000000	      0.00000000	      4.41650168	    -36.29952711	     41.47334241	     93.53437351	     89.22742690	      0.00000000	      0.00000000
     15.22000000	    -88.97776123	     83.14335692	    -88.52097544	      0.83245084	      0.27488233	      0.57488553	     45.00000012	     -9.99999999	      0.00000000	     60.00014062	      1.04720001	     -4.99999985	      0.00000000	      0.00000000	     45.00000012	     -9.99999999	      0.00000000	     60.00014062	      1.04720001	     -4.99999985	      0.00000000	      0.00000000	    -24.08366326	     -2.36344764	      3.06386018	     -4.04593748	    -31.50557193	     28.81583409	     95.40370557	     86.19194080	      0.00000000	      0.00000000	      4.54472564	    -36.32135619	     41.65506139	     93.47590720	     89.21187000	      0.00000000	      0.00000000
     15.22500000	    -89.02152033	     83.01680464	    -88.47964966	      0.83235831	      0.27488584	      0.57509510	     45.00000012	     -9.99999999	      0.00000000	     60.00014062	      1.04720001	     -4.99999985	      0.00000000	      0.00000000	     45.00000012	     -9.99999999	      0.00000000	     60.00014062	      1.04720001	     -4.99999985	      0.00000000	      0.00000000	    -24.20437282	     -2.34942383	      3.00881715	     -4.00817381	    -31.52703707	     28.90440810	     95.38212700	     86.45633205	      0.00000000	      0.00000000	      4.43850851	    -36.32191716	     41.47467429	     93.53209087	     89.22025165	      0.00000000	      0.00000000
